<svg id="Layer_1" data-name="Layer 1" xmlns="http://www.w3.org/2000/svg" viewBox="0 0 379.09 379.09"><defs><style>.cls-1{fill:#fff;stroke:#000;}.cls-1,.cls-2{stroke-miterlimit:10;}.cls-2{fill:none;stroke:#3476a6;stroke-width:15px;stroke-dasharray:238.25 142.95;}</style></defs><title>GitHubIcon</title><path class="cls-1" d="M346.28,113.72A157.5,157.5,0,0,0,288.7,56.14a154.79,154.79,0,0,0-79.43-21.22,154.75,154.75,0,0,0-79.42,21.22,157.5,157.5,0,0,0-57.58,57.58,154.75,154.75,0,0,0-21.22,79.42q0,51.72,30.18,93t78,57.17c3.71.69,6.45.2,8.24-1.44a8.09,8.09,0,0,0,2.68-6.18q0-.61-.11-11.12t-.1-18.34l-4.74.82a59.63,59.63,0,0,1-11.44.72,86.11,86.11,0,0,1-14.31-1.44,32.1,32.1,0,0,1-13.81-6.17,26.18,26.18,0,0,1-9.06-12.67l-2.06-4.74A51.78,51.78,0,0,0,108,272.26c-3-3.85-5.94-6.45-9-7.83l-1.44-1a14.51,14.51,0,0,1-2.68-2.48A11.41,11.41,0,0,1,93.07,258c-.41-1-.07-1.75,1-2.37s3.09-.92,6-.92l4.12.61q4.11.82,10.2,4.95a33.12,33.12,0,0,1,10,10.71,36.32,36.32,0,0,0,11.43,12.87,24.2,24.2,0,0,0,13.5,4.43,58.87,58.87,0,0,0,11.74-1,40.91,40.91,0,0,0,9.27-3.1q1.86-13.8,10.09-21.22a140.45,140.45,0,0,1-21.11-3.71,84.18,84.18,0,0,1-19.37-8,55.36,55.36,0,0,1-16.58-13.8q-6.6-8.24-10.82-21.63t-4.22-30.91q0-24.93,16.28-42.44-7.63-18.73,1.44-42,6-1.86,17.71,2.78A123.36,123.36,0,0,1,161,111.14q5.46,3.28,8.75,5.56a148.94,148.94,0,0,1,79.12,0l7.83-4.94a111,111,0,0,1,18.95-9.07q10.92-4.11,16.7-2.26,9.26,23.28,1.64,42Q310.23,160,310.23,184.9q0,17.5-4.22,31t-10.92,21.63a57.67,57.67,0,0,1-16.69,13.71,84.57,84.57,0,0,1-19.37,8A140.45,140.45,0,0,1,237.92,263q10.7,9.27,10.71,29.26V335.7a8.19,8.19,0,0,0,2.57,6.18q2.58,2.47,8.14,1.44,47.81-15.85,78-57.17t30.18-93A154.82,154.82,0,0,0,346.28,113.72Z" transform="translate(-19.73 -2.73)"/><circle class="cls-2" cx="189.55" cy="189.55" r="182"/></svg>