<svg id="Lag_1" data-name="Lag 1" xmlns="http://www.w3.org/2000/svg" viewBox="0 0 1920 1080"><defs><style>.cls-1{fill:#1f1f1f;}.cls-2{fill:none;stroke:#61abee;stroke-miterlimit:10;stroke-width:7px;}.cls-3{fill:#61abee;}.cls-4{font-size:257px;font-family:Exo2-ExtraBold, Exo 2;font-weight:700;}.cls-4,.cls-5{fill:#c1272d;}.cls-5{font-size:22px;font-family:NidusSans, Nidus Sans;}.cls-6{letter-spacing:0.01em;}.cls-7{letter-spacing:-0.01em;}.cls-8{letter-spacing:-0.01em;}.cls-9{letter-spacing:0.01em;}.cls-10{letter-spacing:0.03em;}.cls-11{letter-spacing:-0.03em;}</style></defs><title>TI</title><rect class="cls-1" width="1920" height="1080"/><circle class="cls-2" cx="911.5" cy="515.5" r="375"/><circle class="cls-2" cx="535" cy="892" r="72.5"/><circle class="cls-2" cx="537" cy="140" r="72.5"/><circle class="cls-2" cx="1287" cy="140" r="72.5"/><circle class="cls-2" cx="1287" cy="891" r="72.5"/><rect class="cls-3" x="594.89" y="193.26" width="6.35" height="90.58" transform="translate(-27.03 392.97) rotate(-35.62)"/><circle class="cls-2" cx="535.09" cy="892.17" r="72.5"/><rect class="cls-3" x="615.45" y="766.48" width="6.35" height="90.58" transform="translate(530.57 1828.6) rotate(-137.74)"/><circle class="cls-2" cx="1288.09" cy="140.01" r="72.5"/><rect class="cls-3" x="1192.41" y="164.61" width="6.35" height="90.58" transform="translate(571.23 -831.09) rotate(49.09)"/><circle class="cls-2" cx="1287.61" cy="890.59" r="72.5"/><rect class="cls-3" x="1212.04" y="756.22" width="6.35" height="89.29" transform="translate(2651.18 563.89) rotate(137.24)"/><text class="cls-4" transform="translate(792.65 584.9)">TI</text><text class="cls-5" transform="translate(801.31 629.71)">D<tspan class="cls-6" x="13.08" y="0">r</tspan><tspan class="cls-7" x="26.39" y="0">i</tspan><tspan class="cls-8" x="30.89" y="0">v</tspan><tspan class="cls-6" x="43.45" y="0">e</tspan><tspan x="56.56" y="0">n </tspan><tspan class="cls-7" x="80.44" y="0">b</tspan><tspan x="92.96" y="0">y </tspan><tspan class="cls-8" x="115.52" y="0">t</tspan><tspan class="cls-9" x="127.7" y="0">h</tspan><tspan x="142.33" y="0">e p</tspan><tspan class="cls-6" x="177.44" y="0">r</tspan><tspan x="190.75" y="0">e</tspan><tspan class="cls-10" x="203.56" y="0">s</tspan><tspan class="cls-6" x="216.36" y="0">e</tspan><tspan class="cls-7" x="229.46" y="0">n</tspan><tspan x="243.58" y="0">t</tspan><tspan class="cls-9" x="-3.64" y="26.4">In</tspan><tspan class="cls-10" x="16.18" y="26.4">s</tspan><tspan x="28.97" y="26.4">p</tspan><tspan class="cls-9" x="41.79" y="26.4">i</tspan><tspan class="cls-6" x="46.89" y="26.4">re</tspan><tspan x="73.3" y="26.4">d </tspan><tspan class="cls-7" x="95.86" y="26.4">b</tspan><tspan x="108.39" y="26.4">y </tspan><tspan class="cls-8" x="130.95" y="26.4">t</tspan><tspan class="cls-9" x="143.13" y="26.4">h</tspan><tspan x="157.76" y="26.4">e f</tspan><tspan class="cls-11" x="192.87" y="26.4">u</tspan><tspan x="206.53" y="26.4">t</tspan><tspan class="cls-6" x="219.02" y="26.4">ur</tspan><tspan x="246.9" y="26.4">e</tspan></text></svg>